<svg width="12" height="13" viewBox="0 0 12 13" fill="none" xmlns="http://www.w3.org/2000/svg">
<path d="M1.6 6.5C1.6 4.07393 3.57393 2.1 6 2.1C8.42607 2.1 10.4 4.07393 10.4 6.5C10.4 8.92607 8.42607 10.9 6 10.9C3.57393 10.9 1.6 8.92607 1.6 6.5ZM2.3 6.5C2.3 8.54018 3.95982 10.2 6 10.2C8.04018 10.2 9.7 8.54018 9.7 6.5C9.7 4.45982 8.04018 2.8 6 2.8C3.95982 2.8 2.3 4.45982 2.3 6.5Z" fill="black" stroke="white" stroke-width="0.2"/>
<path d="M6.3498 6.3137V6.35512L6.37909 6.38441L7.52653 7.53185L7.03165 8.02673L5.6498 6.64488V4.35H6.3498V6.3137Z" fill="black" stroke="white" stroke-width="0.2"/>
</svg>
